# xmcd CD database file
#
# Track frame offsets:
#	150
#	14842
#	29077
#	46312
#	60185
#	75711
#	89201
#	108786
#	123046
#	139415
#	154041
#	165203
#	179315
#
# Disc length: 2573 seconds
#
# Revision: 0
# Processed by: cddbd v1.5.2PL0 Copyright (c) Steve Scherf et al.
# Submitted via: CDex 1.70beta2
#
DISCID=a30a0b0d
DTITLE=Cuddy, Chris - Cdn. - ON - October Morning
DYEAR=2006
DGENRE=Country
TTITLE0=October Morning
TTITLE1=Here I Go Again
TTITLE2=The High Life
TTITLE3=Which Way To Run
TTITLE4=By the Way
TTITLE5=Play With Fire
TTITLE6=Long Long Time
TTITLE7=Bandolero
TTITLE8=Now That You've Taken My Heart
TTITLE9=$2 Song
TTITLE10=Missouri
TTITLE11=Apple Annie
TTITLE12=One For Nick
EXTD=YEAR: 2006
EXTT0=
EXTT1=
EXTT2=
EXTT3=
EXTT4=
EXTT5=
EXTT6=
EXTT7=
EXTT8=
EXTT9=
EXTT10=
EXTT11=
EXTT12=
PLAYORDER=
